<?xml version="1.0" encoding="utf-8"?>
<!-- Generator: Adobe Illustrator 16.2.0, SVG Export Plug-In . SVG Version: 6.00 Build 0)  -->
<!DOCTYPE svg PUBLIC "-//W3C//DTD SVG 1.1//EN" "http://www.w3.org/Graphics/SVG/1.1/DTD/svg11.dtd">
<svg version="1.1" id="Layer_1" xmlns="http://www.w3.org/2000/svg" xmlns:xlink="http://www.w3.org/1999/xlink" x="0px" y="0px"
	 width="100px" height="100px" viewBox="0 0 100 100" enable-background="new 0 0 100 100" xml:space="preserve">
<path fill="#E94B00" d="M34.613,97.625c-6.109-13.243-2.857-20.835,1.839-27.981c5.142-7.831,6.466-15.584,6.466-15.584
	s4.043,5.478,2.427,14.039c7.14-8.282,8.487-21.477,7.41-26.53c16.139,11.751,23.037,37.199,13.742,56.057
	c49.444-29.147,12.298-72.76,5.832-77.671c2.154,4.912,2.564,13.228-1.791,17.264C63.165,8.094,44.94,2.125,44.94,2.125
	c2.154,15.02-7.815,31.443-17.428,43.715c-0.339-5.989-0.698-10.122-3.719-15.853c-0.679,10.879-8.66,19.749-10.82,30.648
	C10.044,75.397,15.166,86.203,34.613,97.625z"/>
</svg>
