<?xml version="1.0" encoding="utf-8"?>
<!-- Generator: Adobe Illustrator 16.2.0, SVG Export Plug-In . SVG Version: 6.00 Build 0)  -->
<!DOCTYPE svg PUBLIC "-//W3C//DTD SVG 1.1//EN" "http://www.w3.org/Graphics/SVG/1.1/DTD/svg11.dtd">
<svg version="1.1" id="Layer_1" xmlns="http://www.w3.org/2000/svg" xmlns:xlink="http://www.w3.org/1999/xlink" x="0px" y="0px"
	 width="100px" height="100px" viewBox="0 0 100 100" enable-background="new 0 0 100 100" xml:space="preserve">
<path fill-rule="evenodd" clip-rule="evenodd" fill="#E94B00" d="M91.539,56.971c0,22.581-18.554,40.882-41.439,40.882
	S8.662,79.552,8.662,56.971c0-21.195,16.355-38.62,37.295-40.671V7.675h-8.29V2.225h24.866v5.451h-8.286V16.3
	C75.184,18.351,91.539,35.775,91.539,56.971z M50.1,21.285c-19.979,0-36.176,15.979-36.176,35.686
	c0,19.711,16.196,35.688,36.176,35.688s36.179-15.978,36.179-35.688C86.278,37.263,70.079,21.285,50.1,21.285z M68.059,74.689h2.761
	v2.724h-2.761V74.689z M68.059,36.532h2.761v2.725h-2.761V36.532z M51.304,60.009c-4.963,0-5.269-4.838-5.269-4.838
	c-0.547-4.838,3.955-24.277,3.955-24.277c4.768,14.683,5.069,24.081,5.069,24.081C54.733,58.692,51.304,60.009,51.304,60.009z
	 M48.72,22.907h2.763v2.724H48.72V22.907z M29.379,74.689h2.763v2.724h-2.763V74.689z M26.616,36.532h2.763v2.725h-2.763V36.532z
	 M51.482,88.314H48.72v-2.724h2.763V88.314z M18.329,55.609h2.762v2.725h-2.762V55.609z M81.87,58.334h-2.761v-2.725h2.761V58.334z"
	/>
</svg>
